<?xml version="1.0" standalone="no"?>
<!DOCTYPE svg PUBLIC "-//W3C//DTD SVG 20010904//EN"
 "http://www.w3.org/TR/2001/REC-SVG-20010904/DTD/svg10.dtd">
<svg version="1.0" xmlns="http://www.w3.org/2000/svg"
 width="1024.000000pt" height="1024.000000pt" viewBox="0 0 1024.000000 1024.000000"
 preserveAspectRatio="xMidYMid meet">
<metadata>
Created by potrace 1.11, written by Peter Selinger 2001-2013
</metadata>
<g transform="translate(0.000000,1024.000000) scale(0.100000,-0.100000)"
fill="#000000" stroke="none">
<path d="M4880 10100 c-8 -4 -49 -10 -90 -13 -41 -4 -91 -8 -110 -11 -19 -3
-62 -8 -95 -11 -33 -3 -67 -8 -75 -10 -8 -2 -35 -7 -60 -10 -25 -2 -56 -7 -70
-11 -14 -3 -32 -6 -40 -6 -8 0 -42 -6 -75 -14 -33 -7 -76 -16 -95 -19 -19 -3
-48 -10 -65 -15 -16 -5 -46 -12 -65 -15 -19 -2 -60 -12 -90 -20 -30 -9 -66
-18 -79 -21 -13 -3 -32 -9 -41 -14 -10 -5 -19 -8 -21 -5 -2 2 -96 -28 -209
-66 -113 -38 -209 -71 -215 -72 -5 -2 -27 -11 -49 -20 -21 -9 -41 -17 -43 -17
-3 0 -19 -6 -36 -14 -18 -7 -81 -35 -142 -61 -60 -26 -130 -57 -155 -70 -108
-53 -141 -70 -245 -125 -60 -32 -144 -79 -185 -104 -41 -26 -83 -49 -92 -52
-10 -4 -18 -10 -18 -15 0 -5 -6 -9 -13 -9 -8 0 -23 -8 -35 -17 -11 -10 -50
-36 -86 -58 -36 -22 -66 -43 -66 -47 0 -5 -4 -8 -10 -8 -11 0 -211 -142 -245
-173 -11 -10 -32 -26 -48 -35 -15 -9 -27 -20 -27 -24 0 -4 -4 -8 -10 -8 -5 0
-18 -8 -28 -17 -10 -10 -30 -27 -43 -38 -13 -11 -40 -33 -59 -49 -306 -250
-682 -652 -869 -926 -121 -178 -129 -189 -138 -210 -4 -8 -10 -17 -14 -20 -9
-6 -140 -256 -140 -267 0 -4 -6 -15 -12 -23 -11 -14 -23 -38 -55 -110 -6 -14
-27 -60 -47 -104 -19 -43 -35 -83 -35 -88 0 -5 -9 -28 -19 -51 -32 -71 -157
-435 -177 -517 -2 -8 -17 -64 -34 -125 -17 -60 -33 -123 -36 -139 -2 -16 -7
-32 -9 -36 -2 -4 -7 -22 -10 -41 -5 -30 -14 -68 -31 -144 -5 -19 -9 -42 -18
-102 -3 -16 -11 -64 -20 -108 -14 -78 -24 -146 -31 -214 -2 -19 -6 -50 -9 -70
-8 -54 -14 -108 -21 -191 -4 -41 -9 -95 -12 -120 -9 -72 -13 -710 -5 -710 10
0 8 -62 -2 -79 -6 -9 -5 -12 1 -8 7 4 13 -27 17 -86 4 -50 9 -105 12 -122 4
-35 34 -231 39 -260 1 -11 6 -40 9 -65 4 -25 9 -53 12 -63 3 -11 8 -30 10 -43
10 -58 13 -72 29 -134 9 -36 19 -76 22 -89 2 -14 6 -28 9 -33 3 -4 7 -18 9
-30 3 -12 14 -52 25 -88 11 -36 22 -75 24 -87 3 -12 10 -32 17 -45 7 -13 11
-24 10 -26 -2 -2 1 -15 7 -30 6 -15 27 -72 47 -127 43 -115 81 -204 137 -325
22 -47 47 -98 54 -115 33 -70 146 -267 249 -434 70 -113 218 -311 348 -466 68
-80 349 -360 412 -410 28 -21 55 -44 60 -50 6 -6 30 -26 55 -45 25 -19 47 -37
50 -40 3 -3 21 -17 40 -30 19 -13 41 -30 48 -37 15 -14 270 -186 292 -196 8
-4 29 -16 45 -26 150 -97 457 -250 683 -342 74 -30 432 -157 462 -164 8 -2 65
-18 125 -35 61 -18 118 -33 128 -35 10 -2 27 -7 37 -10 10 -3 27 -7 37 -9 11
-2 48 -11 84 -20 62 -15 198 -43 249 -52 14 -2 36 -7 48 -10 13 -2 43 -7 65
-10 23 -3 49 -8 57 -10 8 -3 35 -7 60 -10 25 -2 54 -5 65 -8 22 -4 102 -15
155 -21 19 -2 53 -6 75 -9 22 -3 74 -8 115 -11 41 -3 111 -8 155 -12 113 -10
744 -9 905 1 74 5 155 9 180 11 25 1 68 5 95 9 28 4 70 9 95 11 100 10 196 23
232 30 25 6 37 8 115 19 18 2 40 7 50 10 10 3 38 8 63 11 24 4 47 8 50 10 3 2
25 6 50 10 24 4 52 11 62 16 10 5 18 8 18 5 0 -6 242 58 377 100 62 19 115 35
118 35 2 0 25 8 50 19 25 11 45 17 45 13 0 -3 6 -1 13 4 14 12 89 38 100 35 4
-1 7 2 7 8 0 5 7 10 15 10 8 0 34 9 58 19 36 16 70 30 87 36 36 12 379 180
430 210 14 8 84 49 155 90 72 42 132 81 133 86 2 5 8 9 13 9 17 0 320 214 375
265 7 5 31 26 55 45 55 45 127 106 159 136 89 83 277 273 340 344 41 47 77 87
80 90 3 3 21 25 40 50 19 25 37 47 40 50 30 29 163 229 232 350 59 103 150
277 153 290 1 3 18 41 39 85 55 116 78 169 131 305 21 52 38 100 39 105 1 6 7
19 13 30 6 11 11 25 12 30 0 6 7 28 15 50 19 53 89 277 91 290 1 6 4 17 7 25
7 16 34 119 42 160 3 14 10 43 15 65 11 47 29 132 43 195 5 25 11 63 14 84 3
22 7 43 10 47 2 4 7 31 10 61 3 29 7 61 10 71 3 10 8 35 10 55 2 20 6 51 9 67
2 17 7 55 10 85 27 221 30 311 30 765 0 401 -4 520 -19 660 -2 17 -7 57 -10
90 -4 33 -8 75 -11 93 -2 18 -7 52 -10 75 -3 23 -8 60 -12 82 -4 22 -8 48 -9
58 -1 9 -2 18 -4 20 -1 1 -4 20 -6 43 -3 22 -20 114 -39 205 -20 90 -37 175
-40 189 -2 14 -18 77 -35 140 -17 63 -33 126 -36 139 -3 13 -9 32 -15 43 -5
10 -7 18 -4 18 2 0 -4 24 -14 53 -10 28 -23 70 -30 92 -18 56 -102 288 -110
300 -3 6 -6 12 -6 15 0 13 -83 192 -129 280 -27 52 -54 105 -60 117 -6 13 -14
23 -18 23 -5 0 -8 4 -8 10 0 10 -128 206 -164 251 -12 14 -32 41 -46 59 -37
49 -150 190 -185 230 -154 175 -406 420 -535 520 -25 19 -49 40 -55 45 -5 6
-28 24 -50 40 -22 16 -42 32 -45 35 -3 3 -34 27 -70 53 -36 26 -69 51 -75 55
-5 4 -50 35 -100 67 -49 33 -91 63 -93 68 -2 4 -10 7 -17 7 -8 0 -20 6 -27 13
-18 16 -47 34 -78 50 -14 6 -53 29 -86 50 -34 20 -66 37 -70 37 -5 0 -20 9
-34 20 -14 11 -32 20 -42 20 -9 0 -18 3 -20 8 -1 4 -32 22 -68 39 -36 17 -94
45 -130 63 -196 95 -558 227 -810 296 -151 40 -140 38 -195 49 -45 9 -45 9
-140 30 -38 9 -83 18 -100 20 -16 3 -41 7 -55 10 -24 6 -40 8 -125 19 -22 3
-51 8 -65 11 -14 3 -52 7 -85 10 -33 3 -76 8 -95 10 -19 3 -73 8 -120 11 -47
3 -86 10 -88 15 -2 5 -12 4 -23 -1 -13 -8 -19 -7 -19 0 0 7 -6 8 -19 0 -13 -7
-22 -7 -26 0 -10 16 -695 14 -695 -2 0 -10 -3 -9 -9 1 -6 10 -13 10 -29 2 -12
-6 -22 -7 -24 -2 -2 6 -10 6 -18 1z"/>
</g>
</svg>
